P3
4 4
255
 0  0  0    0  90  90    0  78  0   85  0 15
 0 77  0    0 85  7    0  0  0    0  0  0
 0  0  0    190 125  0    0 15  7    0  90  0
15  0 15    0  135  0    65  78  0    0  213  0
